<svg width="24" height="24" viewBox="0 0 24 24" fill="none" xmlns="http://www.w3.org/2000/svg">
<path d="M16.58 6.8798C16.4598 6.82856 16.3307 6.80138 16.2 6.7998H7.8C7.53478 6.7998 7.28043 6.90516 7.09289 7.0927C6.90536 7.28023 6.8 7.53459 6.8 7.7998C6.8 8.06502 6.90536 8.31937 7.09289 8.50691C7.28043 8.69445 7.53478 8.7998 7.8 8.7998H13.8L7.1 15.4898C6.91375 15.6772 6.80921 15.9306 6.80921 16.1948C6.80921 16.459 6.91375 16.7124 7.1 16.8998C7.28736 17.0861 7.54081 17.1906 7.805 17.1906C8.06918 17.1906 8.32264 17.0861 8.51 16.8998L15.2 10.2198V16.2198C15.2 16.485 15.3054 16.7394 15.4929 16.9269C15.6804 17.1144 15.9348 17.2198 16.2 17.2198C16.4652 17.2198 16.7196 17.1144 16.9071 16.9269C17.0946 16.7394 17.2 16.485 17.2 16.2198V7.7998C17.199 7.60238 17.1396 7.40966 17.0293 7.24594C16.9189 7.08222 16.7626 6.95482 16.58 6.8798Z" fill="black"/>
</svg>
