<svg width="24" height="24" viewBox="0 0 24 24" fill="none" xmlns="http://www.w3.org/2000/svg">
<path d="M22 7.91C21.9764 6.33435 21.3338 4.83125 20.2111 3.72542C19.0885 2.61959 17.5758 1.99982 16 2H7.88C6.30959 2.03141 4.81412 2.6774 3.71472 3.79923C2.61533 4.92106 1.99969 6.42928 2 8V16.08C2.02103 17.6574 2.66245 19.163 3.7854 20.271C4.90834 21.379 6.42247 22.0001 8 22H9.74V15H7.89C7.75739 15 7.63021 14.9473 7.53645 14.8536C7.44268 14.7598 7.39 14.6326 7.39 14.5V12.52C7.39 12.3874 7.44268 12.2602 7.53645 12.1664C7.63021 12.0727 7.75739 12.02 7.89 12.02H9.74V9.02C9.74264 8.08725 10.1143 7.19346 10.7739 6.5339C11.4335 5.87434 12.3272 5.50264 13.26 5.5H16.11C16.2426 5.5 16.3698 5.55268 16.4636 5.64645C16.5573 5.74021 16.61 5.86739 16.61 6V8C16.61 8.13261 16.5573 8.25979 16.4636 8.35355C16.3698 8.44732 16.2426 8.5 16.11 8.5H14.44C14.127 8.5 13.8269 8.62432 13.6056 8.84561C13.3843 9.06691 13.26 9.36704 13.26 9.68V12H16C16.0827 11.9988 16.1645 12.0181 16.2379 12.0562C16.3114 12.0943 16.3742 12.1501 16.4208 12.2185C16.4674 12.2868 16.4962 12.3657 16.5048 12.448C16.5134 12.5303 16.5015 12.6135 16.47 12.69L15.7 14.62C15.6634 14.7148 15.5989 14.7961 15.5149 14.8533C15.431 14.9105 15.3316 14.9407 15.23 14.94H13.23V21.94H16.09C17.6691 21.9216 19.1773 21.2813 20.2875 20.1581C21.3976 19.0349 22.0201 17.5192 22.02 15.94L22 7.91Z" fill="black"/>
</svg>
