<svg width="20" height="20" viewBox="0 0 20 20" fill="none" xmlns="http://www.w3.org/2000/svg">
<path d="M20.0001 9.41011C19.9033 7.9091 19.4692 6.44924 18.7301 5.13924C17.991 3.82924 16.9659 2.70285 15.7311 1.84395C14.4963 0.985039 13.0837 0.415744 11.5984 0.178451C10.1131 -0.0588428 8.59338 0.0419788 7.15245 0.473408C5.71152 0.904838 4.38648 1.65576 3.27599 2.67026C2.16549 3.68476 1.29816 4.9367 0.738571 6.33286C0.17898 7.72902 -0.0584506 9.23343 0.0439579 10.7341C0.146367 12.2347 0.585976 13.6929 1.33005 15.0001L0.440052 18.3101C0.406096 18.4415 0.399224 18.5784 0.419854 18.7125C0.440484 18.8465 0.488184 18.975 0.560052 19.0901C0.641241 19.2316 0.758583 19.3489 0.900052 19.4301C1.01525 19.4973 1.14271 19.5407 1.27495 19.5579C1.40719 19.5751 1.54152 19.5656 1.67005 19.5301L4.94005 18.6301C6.47488 19.5286 8.22157 20.0015 10.0001 20.0001C11.3581 19.9813 12.6987 19.6902 13.9422 19.1438C15.1857 18.5975 16.3069 17.8072 17.2394 16.8197C18.1719 15.8322 18.8967 14.6675 19.3709 13.3948C19.8451 12.122 20.0591 10.7671 20.0001 9.41011ZM14.0001 14.6601C12.8601 15.3201 11.7501 15.0801 10.1201 14.1501C8.23184 13.0132 6.67635 11.3991 5.61005 9.47011C4.61005 7.54011 4.80005 6.31011 5.74005 5.47011C6.00442 5.19452 6.35966 5.024 6.74005 4.99011C6.88581 4.98562 7.03044 5.01702 7.16122 5.08153C7.292 5.14605 7.40492 5.24172 7.49005 5.36011L8.84005 7.36011C8.87228 7.46123 8.8957 7.56495 8.91005 7.67011C8.9099 7.80148 8.87169 7.92999 8.80005 8.04011C8.80005 8.04011 8.30005 8.63011 8.14005 8.80011C8.09425 8.83579 8.06293 8.88686 8.05189 8.94386C8.04086 9.00086 8.05087 9.05992 8.08005 9.11011C8.80314 10.2174 9.75013 11.161 10.8601 11.8801C10.9167 11.9067 10.9804 11.9142 11.0417 11.9016C11.103 11.889 11.1585 11.8569 11.2001 11.8101C11.4346 11.58 11.6816 11.363 11.9401 11.1601C12.0392 11.0979 12.1521 11.0609 12.2689 11.0522C12.3856 11.0435 12.5027 11.0633 12.6101 11.1101L14.6101 12.4901C14.7103 12.5905 14.8038 12.6974 14.8901 12.8101C14.9671 13.1735 14.9215 13.5521 14.7605 13.8869C14.5995 14.2216 14.332 14.4935 14.0001 14.6601Z" fill="black"/>
</svg>
